# xmcd
#
# Track frame offsets: 
#        150
#        11561
#        27137
#        48132
#        61909
#        76783
#        95280
#        109331
#        124912
#        140096
#        159687
#        177632
#        191916
#        212300
#        229848
#        247171
#
# Disc length: 3542 seconds
#
# Revision: 0
# Processed by: cddbd v1.5.2PL0 Copyright (c) Steve Scherf et al.
# Submitted via: ExactAudioCopy v0.99pb4
#
DISCID=db0dd410
DTITLE=Various Artist - New Country Rock vol.8
DYEAR=2014
DGENRE=Country
TTITLE0=Daryle Singletary - They know how to grow em
TTITLE1=Zona Jones - Drinking
TTITLE2=Mark Selby - Another Man
TTITLE3=Delta Moon - Wishbone
TTITLE4=Steff Nevers - Party at the farm
TTITLE5=Cody McCarver - Country Badass
TTITLE6=Rick Monroe - Hillbilly Heaven
TTITLE7=Michael Scott - I call it heaven
TTITLE8=Bonnie Tyler - Flat on the floor
TTITLE9=Buffalo C. Wayne - Have a party
TTITLE10=Willie Logan - Tumbleweed
TTITLE11=Brandy Zdan - Blood as the ink
TTITLE12=Tim Grimm - King of the folksingers
TTITLE13=Eric Heatherley - Way down
TTITLE14=Cledus T. Judd ft. Colt Ford - Washing airplanes
TTITLE15=Kevin Chase - Lonesome ornery and mean
EXTD=
EXTT0=
EXTT1=
EXTT2=
EXTT3=
EXTT4=
EXTT5=
EXTT6=
EXTT7=
EXTT8=
EXTT9=
EXTT10=
EXTT11=
EXTT12=
EXTT13=
EXTT14=
EXTT15=
PLAYORDER=
